<svg width="47" height="48" viewBox="0 0 47 48" fill="none" xmlns="http://www.w3.org/2000/svg">
<path d="M5.875 23.6823C5.875 17.17 5.875 13.9139 7.81084 11.8908C9.74668 9.86768 17.2686 9.86768 23.5 9.86768C29.7314 9.86768 37.2533 9.86768 39.1892 11.8908C41.125 13.9139 41.125 17.17 41.125 23.6823C41.125 30.1945 41.125 33.4507 39.1892 35.4738C37.2533 37.4969 29.7314 37.4969 23.5 37.4969C17.2686 37.4969 9.74668 37.4969 7.81084 35.4738C5.875 33.4507 5.875 30.1945 5.875 23.6823Z" fill="#D9D9D9"/>
<path d="M29.0092 22.8666C29.8694 23.4511 29.8725 24.1862 29.0092 24.847L22.3388 30.332C21.5007 30.8774 20.9314 30.5554 20.8717 29.3754L20.8434 17.8953C20.8245 16.8083 21.5588 16.5012 22.2586 17.0224L29.0092 22.8666Z" fill="#D9D9D9"/>
<path d="M29.0092 24.847L28.4014 24.0529L28.3876 24.0635L28.3741 24.0746L29.0092 24.847ZM29.0092 22.8666L28.3547 23.6227L28.3989 23.6609L28.4472 23.6938L29.0092 22.8666ZM22.2586 17.0224L22.9131 16.2663L22.8853 16.2423L22.8559 16.2203L22.2586 17.0224ZM20.8434 17.8953L21.8434 17.8928L21.8433 17.8854L21.8432 17.8779L20.8434 17.8953ZM20.8717 29.3754L19.8717 29.3778L19.8717 29.4019L19.8729 29.4259L20.8717 29.3754ZM22.3388 30.332L22.8842 31.1702L22.9309 31.1398L22.9739 31.1044L22.3388 30.332ZM23.5 36.4969C20.3727 36.4969 16.9809 36.4961 14.1314 36.2478C12.7067 36.1236 11.4542 35.9402 10.4586 35.6767C9.43026 35.4045 8.82084 35.0829 8.53336 34.7824L7.08832 36.1651C7.76876 36.8762 8.82553 37.3133 9.94678 37.6101C11.1006 37.9155 12.4811 38.1115 13.9578 38.2402C16.911 38.4976 20.3959 38.4969 23.5 38.4969V36.4969ZM4.875 23.6823C4.875 26.9113 4.87305 29.4294 5.12515 31.3891C5.3804 33.3731 5.91161 34.9354 7.08832 36.1651L8.53336 34.7824C7.77423 33.9891 7.33752 32.9117 7.10881 31.1339C6.87695 29.3316 6.875 26.9655 6.875 23.6823H4.875ZM40.125 23.6823C40.125 26.9655 40.1231 29.3316 39.8912 31.1339C39.6625 32.9117 39.2258 33.9891 38.4666 34.7824L39.9117 36.1651C41.0884 34.9354 41.6196 33.3731 41.8748 31.3891C42.1269 29.4294 42.125 26.9113 42.125 23.6823H40.125ZM23.5 38.4969C26.6041 38.4969 30.089 38.4976 33.0422 38.2402C34.5189 38.1115 35.8994 37.9155 37.0532 37.6101C38.1745 37.3133 39.2312 36.8762 39.9117 36.1651L38.4666 34.7824C38.1792 35.0829 37.5697 35.4045 36.5414 35.6767C35.5458 35.9402 34.2933 36.1236 32.8686 36.2478C30.0191 36.4961 26.6273 36.4969 23.5 36.4969V38.4969ZM23.5 10.8677C26.6273 10.8677 30.0191 10.8684 32.8686 11.1168C34.2933 11.241 35.5458 11.4243 36.5414 11.6879C37.5697 11.9601 38.1792 12.2817 38.4666 12.5821L39.9117 11.1994C39.2312 10.4883 38.1745 10.0513 37.0532 9.75447C35.8994 9.44903 34.5189 9.25305 33.0422 9.12434C30.089 8.86693 26.6041 8.86768 23.5 8.86768V10.8677ZM42.125 23.6823C42.125 20.4532 42.1269 17.9351 41.8748 15.9755C41.6196 13.9915 41.0884 12.4292 39.9117 11.1994L38.4666 12.5821C39.2258 13.3755 39.6625 14.4528 39.8912 16.2307C40.1231 18.033 40.125 20.3991 40.125 23.6823H42.125ZM23.5 8.86768C20.3959 8.86768 16.911 8.86693 13.9578 9.12434C12.4811 9.25305 11.1006 9.44903 9.94678 9.75447C8.82553 10.0513 7.76876 10.4883 7.08832 11.1994L8.53336 12.5821C8.82084 12.2817 9.43026 11.9601 10.4586 11.6879C11.4542 11.4243 12.7067 11.241 14.1314 11.1168C16.9809 10.8684 20.3727 10.8677 23.5 10.8677V8.86768ZM6.875 23.6823C6.875 20.3991 6.87695 18.033 7.10881 16.2307C7.33752 14.4528 7.77423 13.3755 8.53336 12.5821L7.08832 11.1994C5.91161 12.4292 5.3804 13.9915 5.12515 15.9755C4.87305 17.9351 4.875 20.4532 4.875 23.6823H6.875ZM29.617 25.6411C30.1609 25.2248 30.6564 24.6162 30.6555 23.827C30.6546 23.0192 30.1371 22.424 29.5712 22.0395L28.4472 23.6938C28.5863 23.7882 28.6436 23.8576 28.6618 23.8849C28.6751 23.9049 28.6556 23.8824 28.6555 23.8293C28.6554 23.7788 28.6732 23.7684 28.6482 23.8081C28.6198 23.8532 28.5501 23.9391 28.4014 24.0529L29.617 25.6411ZM29.6637 22.1106L22.9131 16.2663L21.6041 17.7784L28.3547 23.6227L29.6637 22.1106ZM22.8559 16.2203C22.3205 15.8216 21.5333 15.5768 20.8003 15.9792C20.0729 16.3785 19.8308 17.1798 19.8435 17.9126L21.8432 17.8779C21.8404 17.7144 21.8676 17.643 21.8719 17.6332C21.8734 17.6298 21.8681 17.643 21.8495 17.6641C21.8304 17.6859 21.8016 17.711 21.7627 17.7324C21.7238 17.7537 21.684 17.7662 21.6482 17.7716C21.6132 17.7769 21.5883 17.7746 21.577 17.7727C21.5567 17.7694 21.5879 17.7697 21.6613 17.8244L22.8559 16.2203ZM19.8434 17.8977L19.8717 29.3778L21.8717 29.3729L21.8434 17.8928L19.8434 17.8977ZM19.8729 29.4259C19.9062 30.0837 20.0875 30.9118 20.7816 31.3476C21.5464 31.8279 22.3656 31.5076 22.8842 31.1702L21.7934 29.4938C21.7283 29.5362 21.6784 29.5619 21.6438 29.5767C21.6089 29.5916 21.5961 29.5928 21.6035 29.5916C21.6118 29.5902 21.6436 29.5863 21.6918 29.5947C21.7421 29.6033 21.7958 29.6229 21.8451 29.6538C21.9455 29.7169 21.9575 29.78 21.937 29.7287C21.9273 29.7044 21.9131 29.6603 21.8999 29.591C21.8868 29.5221 21.8759 29.4342 21.8704 29.3248L19.8729 29.4259ZM22.9739 31.1044L29.6444 25.6194L28.3741 24.0746L21.7036 29.5596L22.9739 31.1044Z" fill="black"/>
</svg>
