<svg width="182" height="35" viewBox="0 0 182 35" fill="none" xmlns="http://www.w3.org/2000/svg">
<g filter="url(#filter0_d_11_207)">
<path d="M12.6 26.5599C9.2667 26.5599 6.5867 26.1332 4.56003 25.2799V21.4399C5.7067 21.8666 6.93336 22.2132 8.24003 22.4799C9.57336 22.7466 10.8934 22.8799 12.2 22.8799C14.2534 22.8799 15.7867 22.6399 16.8 22.1599C17.84 21.6799 18.36 20.7199 18.36 19.2799C18.36 18.3999 18.1467 17.6932 17.72 17.1599C17.2934 16.6266 16.5867 16.1732 15.6 15.7999C14.6134 15.3999 13.2534 14.9866 11.52 14.5599C8.7467 13.8399 6.80003 12.9332 5.68003 11.8399C4.56003 10.7199 4.00003 9.18658 4.00003 7.23991C4.00003 4.97324 4.8267 3.19991 6.48003 1.91991C8.13336 0.639911 10.6 -8.96454e-05 13.88 -8.96454e-05C15.3734 -8.96454e-05 16.7734 0.106577 18.08 0.319911C19.4134 0.533245 20.4534 0.773245 21.2 1.03991V4.87991C19.1734 4.10658 16.9334 3.71991 14.48 3.71991C12.56 3.71991 11.0667 3.97324 10 4.47991C8.93336 4.98658 8.40003 5.90658 8.40003 7.23991C8.40003 8.01324 8.5867 8.63991 8.96003 9.11991C9.33336 9.59991 9.97336 10.0132 10.88 10.3599C11.8134 10.7066 13.0934 11.0932 14.72 11.5199C16.8267 12.0532 18.4534 12.6932 19.6 13.4399C20.7734 14.1599 21.5867 15.0132 22.04 15.9999C22.52 16.9599 22.76 18.0532 22.76 19.2799C22.76 21.5466 21.92 23.3332 20.24 24.6399C18.56 25.9199 16.0134 26.5599 12.6 26.5599ZM24.9875 26.1599V0.39991H29.3475V26.1599H24.9875ZM39.0816 26.1599V3.79991H30.8416V0.39991H51.6416V3.79991H43.4416V26.1599H39.0816ZM53.136 26.1599V0.39991H71.096V3.79991H57.496V11.5999H69.616V14.9599H57.496V22.7999H71.096V26.1599H53.136ZM80.3469 26.1599V0.39991H84.1869L97.6269 19.3599V0.39991H101.947V26.1599H98.1069L84.7069 7.23991V26.1599H80.3469ZM104.267 26.1599L114.107 0.39991H118.987L128.747 26.1599H124.267L121.707 19.5199H111.347L108.787 26.1599H104.267ZM112.027 16.1599H120.987L116.507 4.35991L112.027 16.1599ZM131.034 26.1599V0.39991H135.514L143.674 17.0799L151.794 0.39991H156.274V26.1599H151.954V7.47991L144.994 21.7199H142.354L135.354 7.47991V26.1599H131.034ZM159.308 26.1599V0.39991H177.268V3.79991H163.668V11.5999H175.788V14.9599H163.668V22.7999H177.268V26.1599H159.308Z" fill="url(#paint0_linear_11_207)" fill-opacity="0.7" shape-rendering="crispEdges"/>
</g>
<defs>
<filter id="filter0_d_11_207" x="0" y="0" width="181.268" height="34.5598" filterUnits="userSpaceOnUse" color-interpolation-filters="sRGB">
<feFlood flood-opacity="0" result="BackgroundImageFix"/>
<feColorMatrix in="SourceAlpha" type="matrix" values="0 0 0 0 0 0 0 0 0 0 0 0 0 0 0 0 0 0 127 0" result="hardAlpha"/>
<feOffset dy="4"/>
<feGaussianBlur stdDeviation="2"/>
<feComposite in2="hardAlpha" operator="out"/>
<feColorMatrix type="matrix" values="0 0 0 0 0 0 0 0 0 0 0 0 0 0 0 0 0 0 0.3 0"/>
<feBlend mode="normal" in2="BackgroundImageFix" result="effect1_dropShadow_11_207"/>
<feBlend mode="normal" in="SourceGraphic" in2="effect1_dropShadow_11_207" result="shape"/>
</filter>
<linearGradient id="paint0_linear_11_207" x1="24.03" y1="26.1599" x2="149.53" y2="-2.84008" gradientUnits="userSpaceOnUse">
<stop stop-color="#C31C75" stop-opacity="0.6"/>
<stop offset="0.644053" stop-color="#DED71A" stop-opacity="0.55"/>
<stop offset="1" stop-color="#4ECA88" stop-opacity="0.7"/>
</linearGradient>
</defs>
</svg>
